<svg id="eJfF6Wb1qkQ1" xmlns="http://www.w3.org/2000/svg" xmlns:xlink="http://www.w3.org/1999/xlink" viewBox="0 0 152 147" shape-rendering="geometricPrecision" text-rendering="geometricPrecision" project-id="fe4976e8fd5b41d2b4d3c058d99d2722" export-id="0652a8f0a82046378c5315b642443724" cached="false"><defs><linearGradient id="eJfF6Wb1qkQ3-fill" x1="0.329826" y1="0.948728" x2="0.571763" y2="0.324446" spreadMethod="pad" gradientUnits="objectBoundingBox" gradientTransform="translate(0 0)"><stop id="eJfF6Wb1qkQ3-fill-0" offset="0%" stop-color="#4f46e5"/><stop id="eJfF6Wb1qkQ3-fill-1" offset="100%" stop-color="#3533b7"/></linearGradient><linearGradient id="eJfF6Wb1qkQ4-fill" x1="0.329826" y1="0.948728" x2="0.571763" y2="0.324446" spreadMethod="pad" gradientUnits="objectBoundingBox" gradientTransform="translate(0 0)"><stop id="eJfF6Wb1qkQ4-fill-0" offset="0%" stop-color="#4f46e5"/><stop id="eJfF6Wb1qkQ4-fill-1" offset="100%" stop-color="#3533b7"/></linearGradient><linearGradient id="eJfF6Wb1qkQ5-fill" x1="0.329826" y1="0.948728" x2="0.571763" y2="0.324446" spreadMethod="pad" gradientUnits="objectBoundingBox" gradientTransform="translate(0 0)"><stop id="eJfF6Wb1qkQ5-fill-0" offset="0%" stop-color="#4f46e5"/><stop id="eJfF6Wb1qkQ5-fill-1" offset="100%" stop-color="#3533b7"/></linearGradient><linearGradient id="eJfF6Wb1qkQ6-fill" x1="0.216512" y1="1.445179" x2="0.729908" y2="0.106308" spreadMethod="pad" gradientUnits="objectBoundingBox" gradientTransform="translate(0 0)"><stop id="eJfF6Wb1qkQ6-fill-0" offset="0%" stop-color="#3c3ccb"/><stop id="eJfF6Wb1qkQ6-fill-1" offset="100%" stop-color="#0c0b4c"/></linearGradient><linearGradient id="eJfF6Wb1qkQ7-fill" x1="0.216512" y1="1.445179" x2="0.729908" y2="0.106308" spreadMethod="pad" gradientUnits="objectBoundingBox" gradientTransform="translate(0 0)"><stop id="eJfF6Wb1qkQ7-fill-0" offset="0%" stop-color="#3c3ccb"/><stop id="eJfF6Wb1qkQ7-fill-1" offset="100%" stop-color="#0c0b4c"/></linearGradient><linearGradient id="eJfF6Wb1qkQ9-fill" x1="0.216512" y1="1.445179" x2="0.729908" y2="0.106308" spreadMethod="pad" gradientUnits="objectBoundingBox" gradientTransform="translate(0 0)"><stop id="eJfF6Wb1qkQ9-fill-0" offset="0%" stop-color="#3c3ccb"/><stop id="eJfF6Wb1qkQ9-fill-1" offset="100%" stop-color="#0c0b4c"/></linearGradient></defs><g transform="matrix(.1 0 0-.1 0 147)"><path d="M615,1374c-118-25-226-84-314-172-119-118-172-227-193-397-10-88-10-93,13-140c38-74,86-108,163-113c131-8,197,59,215,220c17,150,74,253,184,334c85,63,172,87,291,82c81-3,102-8,162-38c88-43,174-128,215-212c33-67,32-43-2,47-50,134-177,270-314,335-137,66-277,84-420,54Zm141-100c-95-23-188-78-261-155-68-73-102-129-130-220l-17-55l25-27c29-33,36-60,25-104-24-93-156-99-194-8-19,47,5,117,46,130c11,3,22,23,29,52c15,59,54,136,100,196c86,115,260,206,391,206l45-1-59-14Z" transform="translate(1.23808 31.3689)" fill="url(#eJfF6Wb1qkQ3-fill)"/><path d="M264,755c-7-29,10-55,36-55s43,26,36,55c-5,20-13,25-36,25s-31-5-36-25Z" fill="url(#eJfF6Wb1qkQ4-fill)"/><path d="M808,1121c-31-10-78-31-104-46-58-34-48-42,60-54c41-5,95-19,120-31c43-20,89-64,98-92c3-7,21,5,46,30c52,52,130,77,206,67l51-6-38,39c-43,44-121,86-188,101-69,16-187,12-251-8Z" fill="url(#eJfF6Wb1qkQ5-fill)"/><path d="M1145,932c-78-26-131-94-139-181-10-94-35-183-69-240-90-151-278-239-447-211-147,25-271,115-336,244-50,98-37,31,15-79c84-177,233-300,426-350c76-19,233-19,310,0c176,45,333,167,413,321c48,93,67,159,77,265c6,69,5,80-19,126-44,88-144,133-231,105Zm127-120c43-44,41-102-5-146-20-19-42-56-56-96-34-94-68-147-137-215-91-90-234-157-329-154-26,1-24,2,16,13c168,47,320,193,370,358l21,68-26,31c-49,58-30,140,39,170c31,13,78,1,107-29Z" fill="url(#eJfF6Wb1qkQ6-fill)"/><path d="M1164,766c-9-23-1-48,19-60c25-16,52,4,52,40c0,25-4,29-33,32-22,2-34-2-38-12Z" fill="url(#eJfF6Wb1qkQ7-fill)"/><path d="M1074,1219.3689c2.104798,2.104818,326.933802-362.435069,313-371.3689c3,7,2,16-1,19-13.684042,118.680982-312.33597,381.40436-312,352.3689Z" transform="translate(-20.43162 94.374925)" fill="none"/><path d="M496,643c-11-33-90-100-132-112-48-13-79-14-122-2-30,9-31,9-21-11c21-38,99-107,152-133c117-56,248-55,366,4c61,32,109,75,92,85-5,4-44,11-87,16-113,14-167,51-230,156-11,18-11,18-18-3Z" fill="url(#eJfF6Wb1qkQ9-fill)"/></g></svg>
